<?xml version="1.0" encoding="UTF-8"?>
<svg xmlns="http://www.w3.org/2000/svg" xmlns:xlink="http://www.w3.org/1999/xlink" width="473.5pt" height="416.27pt" viewBox="0 0 473.5 416.27" version="1.1">
<defs>
<clipPath id="clip1">
  <path d="M 0 316 L 90 316 L 90 416.269531 L 0 416.269531 Z M 0 316 "/>
</clipPath>
<clipPath id="clip2">
  <path d="M 284 316 L 366 316 L 366 416.269531 L 284 416.269531 Z M 284 316 "/>
</clipPath>
<clipPath id="clip3">
  <path d="M 386 316 L 473.5 316 L 473.5 415 L 386 415 Z M 386 316 "/>
</clipPath>
<clipPath id="clip4">
  <path d="M 96 316 L 198 316 L 198 416.269531 L 96 416.269531 Z M 96 316 "/>
</clipPath>
</defs>
<g id="surface1">
<path style=" stroke:none;fill-rule:evenodd;fill:rgb(54.098511%,77.999878%,35.299683%);fill-opacity:1;" d="M 338.980469 7.28125 L 315.460938 76.894531 C 189.324219 76.28125 197.054688 241.367188 299.535156 248.789063 C 306.890625 249.324219 310.542969 248.332031 300.707031 249.152344 C 263.484375 248.9375 235.796875 236.410156 216.050781 217.976563 C 185.34375 189.3125 170.894531 143.390625 176.863281 102.144531 C 182.117188 65.84375 202.980469 33.363281 238.339844 13.980469 C 266.261719 -1.332031 300.441406 -4.820313 338.980469 7.28125 "/>
<path style=" stroke:none;fill-rule:evenodd;fill:rgb(0%,62.399292%,85.499573%);fill-opacity:1;" d="M 150.679688 43.96875 L 187.585938 66.8125 C 182.238281 77.902344 178.648438 89.804688 176.863281 102.144531 C 170.894531 143.390625 185.34375 189.3125 216.050781 217.976563 C 235.703125 236.328125 263.238281 248.824219 300.195313 249.148438 C 306.953125 249.203125 312.027344 248.117188 318.726563 246.773438 C 321.886719 246.136719 325.574219 245.398438 329.554688 244.585938 C 311.855469 251.933594 294.625 254.796875 278.457031 254.601563 C 236.019531 254.089844 195.210938 232.59375 168.976563 199.65625 C 151.695313 177.957031 140.578125 151.503906 137.753906 123.484375 C 135.050781 96.714844 139.996094 70.140625 150.679688 43.96875 "/>
<path style=" stroke:none;fill-rule:evenodd;fill:rgb(0%,48.999023%,71.798706%);fill-opacity:1;" d="M 155.730469 179.976563 L 132.140625 193.84375 C 164.164063 251.960938 253.9375 298.351563 342.390625 250.019531 L 337.984375 241.195313 L 323.644531 245.78125 C 325.515625 245.40625 327.496094 245.007813 329.554688 244.585938 C 311.855469 251.933594 294.625 254.796875 278.457031 254.601563 C 236.019531 254.089844 195.210938 232.59375 168.976563 199.65625 C 164.039063 193.460938 159.613281 186.875 155.730469 179.976563 "/>
<g clip-path="url(#clip1)" clip-rule="nonzero">
<path style=" stroke:none;fill-rule:nonzero;fill:rgb(0%,48.999023%,71.798706%);fill-opacity:1;" d="M 79.566406 381.199219 L 89.449219 399.75 C 80.121094 410.875 64.199219 415.667969 50.917969 416.003906 C 32.71875 416.464844 16.96875 408.117188 7.082031 392.183594 C 2.492188 384.792969 0.132813 376.417969 0 367.03125 C 0 357.746094 2.269531 349.230469 6.847656 341.550781 C 11.421875 333.832031 17.601563 327.785156 25.417969 323.378906 C 33.230469 318.9375 41.746094 316.734375 50.933594 316.734375 C 60.6875 316.734375 72.183594 318.5 87.4375 331.433594 L 75.71875 350.015625 C 65.410156 340.644531 55.035156 337.753906 45.15625 340.394531 C 35.871094 342.875 26.40625 350.640625 26.199219 365.394531 C 26.046875 376.5 30.476563 385.976563 40.554688 391.3125 C 52.769531 397.78125 69.203125 391.664063 79.566406 381.199219 "/>
</g>
<path style=" stroke:none;fill-rule:nonzero;fill:rgb(0%,48.999023%,71.798706%);fill-opacity:1;" d="M 204.679688 401.765625 L 216.429688 382.773438 C 227.300781 392.460938 235.199219 393.585938 240 393.585938 C 244.324219 393.585938 253.0625 392.691406 251.761719 386.09375 C 251.21875 383.332031 248.027344 381.503906 245.578125 380.1875 C 234.035156 373.988281 224.480469 372.851563 214.722656 363.261719 C 210.515625 359.125 207.644531 352.832031 207.644531 346.730469 C 207.644531 337.695313 210.628906 330.757813 217.757813 325.191406 C 224.90625 319.609375 232.949219 316.609375 244.617188 316.609375 C 255.65625 316.609375 267.941406 320.707031 276.082031 328.433594 L 266.332031 348.582031 C 259.03125 340.828125 247.003906 338.679688 241.269531 339.757813 C 237.277344 340.507813 233.941406 341.980469 233.851563 346.25 C 233.742188 351.398438 245.941406 355.433594 249.652344 356.960938 C 257.050781 360.003906 264.085938 362.628906 270.847656 369.589844 C 275.132813 374 277.027344 379.632813 277.027344 386.449219 C 277.027344 395.640625 274.875 402.203125 267.730469 407.605469 C 260.589844 413 253.996094 415.9375 241.90625 415.9375 C 232.304688 415.9375 224.085938 414.183594 217.308594 410.636719 C 210.511719 407.078125 208.550781 405.722656 204.679688 401.765625 "/>
<g clip-path="url(#clip2)" clip-rule="nonzero">
<path style=" stroke:none;fill-rule:nonzero;fill:rgb(0%,48.999023%,71.798706%);fill-opacity:1;" d="M 341.003906 371.855469 C 336.390625 372.550781 331.503906 372.125 326.730469 372.875 C 320.347656 373.867188 311.53125 376.875 310.375 383.160156 C 310.082031 384.761719 310.105469 386.75 311.039063 388.71875 C 313.28125 393.445313 317.695313 395.585938 322.246094 395.554688 C 333.648438 395.46875 341.195313 381.632813 341.003906 371.855469 Z M 365.507813 413.832031 L 342.667969 413.832031 L 342.667969 403.761719 C 340.214844 407.398438 337.101563 410.015625 333.730469 411.882813 C 323.742188 417.433594 309.6875 417.863281 299.6875 412.191406 C 293.46875 408.660156 289.355469 403.242188 287.097656 397.347656 C 279.835938 378.34375 290.355469 363.386719 308.382813 357.257813 C 318.710938 353.75 331.027344 352.480469 340.738281 353.65625 C 340.628906 338.597656 328.90625 338.671875 322.214844 339.304688 C 312.085938 340.269531 304.121094 345.273438 300.15625 347.972656 L 290.367188 329.503906 C 300.902344 320.933594 313.597656 316.96875 327.324219 316.96875 C 341.246094 316.96875 350.460938 320.039063 359.28125 330.675781 C 361.695313 333.585938 363.394531 336.875 364.304688 340.582031 C 365.214844 344.285156 365.507813 347.382813 365.507813 354.332031 L 365.507813 413.832031 "/>
</g>
<g clip-path="url(#clip3)" clip-rule="nonzero">
<path style=" stroke:none;fill-rule:nonzero;fill:rgb(0%,48.999023%,71.798706%);fill-opacity:1;" d="M 473.503906 414.0625 L 448.152344 414.0625 L 448.152344 365.269531 C 448.152344 362.816406 448.226563 360.457031 448.230469 358.246094 C 448.238281 351.070313 448.101563 344.785156 442.273438 342.171875 C 440.179688 341.230469 436.570313 340.84375 433.667969 341.105469 C 418.027344 342.5 411.503906 356.238281 411.503906 370.769531 L 411.503906 414.0625 L 386.152344 414.0625 L 386.152344 318.480469 L 409.6875 318.480469 L 409.6875 332.515625 C 418.0625 321.703125 428.597656 316.292969 441.289063 316.292969 C 446.859375 316.292969 452.003906 317.3125 456.628906 319.308594 C 461.246094 321.335938 464.761719 323.886719 467.128906 327.015625 C 469.503906 330.15625 471.164063 333.6875 472.089844 337.648438 C 473.042969 341.613281 473.503906 347.265625 473.503906 354.640625 L 473.503906 414.0625 "/>
</g>
<g clip-path="url(#clip4)" clip-rule="nonzero">
<path style=" stroke:none;fill-rule:evenodd;fill:rgb(0%,48.999023%,71.798706%);fill-opacity:1;" d="M 147.117188 339.546875 C 161.207031 339.546875 172.632813 351.652344 172.632813 366.589844 C 172.632813 381.523438 161.207031 393.628906 147.117188 393.628906 C 133.027344 393.628906 121.605469 381.523438 121.605469 366.589844 C 121.605469 351.652344 133.027344 339.546875 147.117188 339.546875 Z M 147.117188 316.90625 C 175.097656 316.90625 197.78125 339.148438 197.78125 366.589844 C 197.78125 394.027344 175.097656 416.269531 147.117188 416.269531 C 119.140625 416.269531 96.457031 394.027344 96.457031 366.589844 C 96.457031 339.148438 119.140625 316.90625 147.117188 316.90625 "/>
</g>
</g>
</svg>
